<?xml version="1.0" standalone="no"?>
<!DOCTYPE svg PUBLIC "-//W3C//DTD SVG 20010904//EN"
 "http://www.w3.org/TR/2001/REC-SVG-20010904/DTD/svg10.dtd">
<svg version="1.0" xmlns="http://www.w3.org/2000/svg"
 width="96.000000pt" height="96.000000pt" viewBox="0 0 96.000000 96.000000"
 preserveAspectRatio="xMidYMid meet">
<metadata>
Created by potrace 1.14, written by Peter Selinger 2001-2017
</metadata>
<g transform="translate(0.000000,96.000000) scale(0.100000,-0.100000)"
fill="#000000" stroke="none">
<path d="M355 947 c-40 -19 -93 -64 -100 -86 -3 -11 -16 -22 -29 -25 -37 -9
-46 -46 -46 -187 l0 -130 29 -27 c16 -15 32 -43 36 -62 4 -19 21 -50 38 -67
17 -18 27 -33 21 -34 -5 -1 -27 -2 -49 -4 -22 -1 -50 -3 -63 -3 -28 -2 -49
-46 -47 -99 2 -34 -2 -40 -34 -58 -36 -20 -36 -21 -39 -93 -2 -59 0 -72 13
-72 8 0 15 4 15 8 0 10 30 9 47 -1 7 -5 21 -4 30 1 14 6 341 8 621 2 12 0 28
0 35 1 6 1 22 -1 35 -5 23 -8 23 -7 20 65 -3 73 -3 74 -39 94 -31 18 -35 25
-35 60 0 80 -23 102 -102 101 -23 -1 -42 1 -42 4 0 3 9 18 20 35 11 16 23 50
26 75 5 30 16 54 36 74 l30 29 -4 143 c-3 140 -4 143 -33 185 -49 69 -89 84
-235 87 -88 1 -134 -2 -155 -11z"/>
</g>
</svg>
